<svg xmlns="http://www.w3.org/2000/svg" viewBox="0 0 80.03 40">
  <g id="logo-sesc" transform="translate(-40 -40)">
    <path id="Path_93" data-name="Path 93" fill="#f6be00" d="M155.2,20.186C160.491,13.464,175.1,0,195.019,0c13.978,0,24.57,7.972,24.57,7.972-7.871-3.83-39-10.058-63.512,12.608Z" transform="translate(-99.559 40)"/>
    <path id="Path_94" data-name="Path 94" fill="#004b8d" d="M98,151.333a10.035,10.035,0,0,1,1.572.121V147.12a22.405,22.405,0,0,0-3.064-.191c-7.609,0-13.353,4.555-13.353,10.653a9.654,9.654,0,0,0,.081,1.219c-1.119-1.875-3.6-2.832-7.115-3.558-4.485-.907-5.11-1.31-5.019-2.3.081-.937,1.592-1.8,3.84-1.8a12.676,12.676,0,0,1,5.079,1.139v-4.535a18.452,18.452,0,0,0-5.412-.847c-5.664,0-9.463,2.711-9.766,6.44v.071c-1.371-3.668-4.565-6.43-10.068-6.43-6.621,0-11.146,4.838-11.146,10.713,0,.151,0,.292.01.443-1.25-2.7-4.495-3.951-8.879-4.9-5.18-1.109-5.916-1.623-5.916-2.8,0-1.129,1.32-2.1,3.386-2.056a8.4,8.4,0,0,1,3,.574h0a56.472,56.472,0,0,1,4.112-4.555,20.658,20.658,0,0,0-7.085-1.2c-6.158,0-10.461,3.084-10.461,7.71,0,3.558,1.854,5.17,5.11,6.279.171.05.685.212.978.312,1.119.323,2.378.615,3.759.907,5.079,1.088,5.5,2.006,5.5,3.013,0,1.189-1.411,1.895-3.779,1.895a14.026,14.026,0,0,1-7.831-2.489c-1.34,1.814-2.731,3.81-3.467,5.039a23.449,23.449,0,0,0,11.167,2.9c6.571,0,10.723-2.832,10.945-7.468,1.391,4.223,5.281,6.964,10.542,6.964a18.471,18.471,0,0,0,4.858-.625v-4.5a11.651,11.651,0,0,1-4.485.645,5.481,5.481,0,0,1-5.362-4.192H65.559c.04-.524.081-.867.081-1.431v-.081a15,15,0,0,0-.091-1.653c1.2,1.663,3.84,2.328,7.458,3.064,4.4.9,4.646,1.562,4.646,2.6,0,.907-1.169,1.955-3.779,1.875a19,19,0,0,1-8.224-2.247v5.2a21.7,21.7,0,0,0,8.2,1.834c5.956,0,10.048-3.487,10.048-7.256a2.192,2.192,0,0,0-.01-.252,11.182,11.182,0,0,0,5.482,5.493,16.206,16.206,0,0,0,6.924,1.512A19.359,19.359,0,0,0,99.573,168v-4.394a10.13,10.13,0,0,1-1.572.121c-4.4,0-7.982-2.771-7.982-6.2S93.6,151.333,98,151.333ZM49.747,156a4.973,4.973,0,0,1,5.11-4.3,4.748,4.748,0,0,1,4.979,4.3Z" transform="translate(20.397 -88.768)"/>
    <path id="Path_95" data-name="Path 95" fill="#f6be00" d="M8.5,282.2A85.952,85.952,0,0,0,2.479,290.5,21.192,21.192,0,0,1,0,288.855,67.785,67.785,0,0,1,7.246,281.8C7.246,281.81,8.345,282.143,8.5,282.2Z" transform="translate(40 -213.4)"/>
  </g>
</svg>
